<svg xmlns="http://www.w3.org/2000/svg" width="441.564" height="406.526" viewBox="0 0 441.564 406.526">
  <g id="aec62d68b8d9dc013908507da8bed3d5" transform="translate(-129.218 -71.737)">
    <path id="Path_11575" data-name="Path 11575" d="M257.354,116.312c10.819.314,29.266,3.094,30.8,18.264a43.433,43.433,0,0,1-19.287,9.589s-7.737-7.628-9.48,2.615,5.23,11.769,5.23,11.769.218,14.82,5.884,24.409a32.6,32.6,0,0,1,4.359,19.178s-14.166-15.691-40.318-11.115-12.64-11.551-13.076-16.781,1.526-10.679,5.448-18.525-.344-21.058,8.5-30.511q.4-.422.8-.82A28.8,28.8,0,0,1,257.354,116.312Z"/>
    <path id="Path_11576" data-name="Path 11576" d="M288.242,134.563a30.658,30.658,0,0,1,.927,6.916,28.465,28.465,0,0,1-.138,3.527l-.11.873-.056.748.066.722c.074.227.105.463.185.687a7.062,7.062,0,0,0,1.763,2.468,17.291,17.291,0,0,1,2.432,2.625,2.937,2.937,0,0,1,.458,1.933,3.114,3.114,0,0,1-.738,1.772,4.809,4.809,0,0,1-3.354,1.345l.282-.289c.064,2.787.184,5.567.124,8.373a28.467,28.467,0,0,1-1.286,8.44,6.9,6.9,0,0,1-1.146,2.11,2.871,2.871,0,0,1-.507.486l-.3.218-.363.171a3.166,3.166,0,0,1-.611.2l-.558.143a20.415,20.415,0,0,1-4.331.331,47.186,47.186,0,0,1-8.381-.945l.371-.076a13.464,13.464,0,0,0-2.273,1.549,4.717,4.717,0,0,0-.9,1,1.355,1.355,0,0,0-.193,1.233l-.16.086a1.6,1.6,0,0,1-.072-1.524,5.262,5.262,0,0,1,.8-1.3,11.973,11.973,0,0,1,2.212-2l.123-.09.247.014c2.739.157,5.5.3,8.209.213a25.308,25.308,0,0,0,3.948-.386l.45-.114a1.72,1.72,0,0,0,.379-.114.737.737,0,0,1,.111-.044l.116-.091a1.567,1.567,0,0,0,.248-.224,5.137,5.137,0,0,0,.878-1.5,36.115,36.115,0,0,0,1.688-7.882,58.5,58.5,0,0,0,.611-8.257l0-.283.284-.006a3.766,3.766,0,0,0,2.86-1.19,2.128,2.128,0,0,0,.428-1.41,2,2,0,0,0-.5-1.306,17.613,17.613,0,0,0-2.554-2.122,7.078,7.078,0,0,1-2.328-3,7.55,7.55,0,0,1-.255-.979c-.029-.333-.045-.667-.06-1l.1-.97.132-.836c.186-1.1.288-2.225.379-3.354.148-2.259.21-4.551.18-6.858Z"/>
    <path id="Path_11577" data-name="Path 11577" d="M283.576,150.758a1.363,1.363,0,1,0-1.316-1.362,1.363,1.363,0,0,0,1.316,1.362Z"/>
    <path id="Path_11578" data-name="Path 11578" d="M288.153,154.408a6.059,6.059,0,0,1,.212.96,2.814,2.814,0,0,1,.026.514c-.007.112-.067.136-.152.275a1.619,1.619,0,0,0-.086.866,1.007,1.007,0,0,1-1.167-.182,1.431,1.431,0,0,1,1.167-2.433Z"/>
    <path id="Path_11579" data-name="Path 11579" d="M277.692,145.255a3.473,3.473,0,0,1,1.6-1.558,4.691,4.691,0,0,1,2.211-.506,4.79,4.79,0,0,1,2.187.555,4.067,4.067,0,0,1,1.625,1.509c-.782,0-1.421-.11-2.052-.146-.619-.077-1.207-.075-1.785-.1a28.066,28.066,0,0,0-3.791.249Z"/>
    <path id="Path_11580" data-name="Path 11580" d="M283.576,162.69a6.961,6.961,0,0,1,1.66-.121,9.17,9.17,0,0,1,1.467.192,9.073,9.073,0,0,1,1.411.429,6.472,6.472,0,0,1,1.462.8,4.12,4.12,0,0,1-3.26.542,4.794,4.794,0,0,1-1.518-.611A3.476,3.476,0,0,1,283.576,162.69Z"/>
    <path id="Path_11581" data-name="Path 11581" d="M264.4,156.206a1.363,1.363,0,1,0-1.316-1.362A1.363,1.363,0,0,0,264.4,156.206Z"/>
    <path id="Path_11582" data-name="Path 11582" d="M251.539,246.814,265.968,262.8l-1.4,1.159Z"/>
    <path id="Path_11583" data-name="Path 11583" d="M344.958,301.245A78.38,78.38,0,0,0,353.09,281.7a139.34,139.34,0,0,0,3.891-20.841c.423-3.516.725-7.041,1.046-10.587a29.824,29.824,0,0,1,.838-5.385,35.028,35.028,0,0,1,1.861-5.114c2.92-6.564,6.779-12.562,8.827-19.277a48.112,48.112,0,0,0,1.321-5.07c.163-.856.311-1.716.406-2.577a14.387,14.387,0,0,0,.114-2.522,24.326,24.326,0,0,0-1.342-4.991c-.595-1.653-1.262-3.292-2-4.884-.184-.4-.376-.775-.577-1.182a2.5,2.5,0,0,1-.213-.8,3.372,3.372,0,0,1-.023-.739,15.549,15.549,0,0,1,.431-2.713c.4-1.75.9-3.453,1.323-5.171a33.482,33.482,0,0,0,.939-5.184c.082-.863.086-1.758.083-2.629a9.514,9.514,0,0,0-.31-2.546,2.39,2.39,0,0,0-1.577-1.667c-.2-.074-.4-.147-.609-.211-.036-.01-.138-.049-.121-.034.006,0-.007,0-.022,0a.625.625,0,0,0-.175.116,4.644,4.644,0,0,0-.732,1,38.22,38.22,0,0,0-2.205,4.8c-1.31,3.294-2.506,6.639-3.727,9.975s-2.421,6.682-3.817,9.975a26.219,26.219,0,0,1-1.18,2.438,4.679,4.679,0,0,1-2.026,2.046,4.093,4.093,0,0,1-2.923.178,7.4,7.4,0,0,1-2.5-1.344l-.182-.144,0-.244v-.009l.185.389a8.822,8.822,0,0,1-2.569-3.271,5.461,5.461,0,0,1-.332-1.044c-.072-.379-.095-.688-.135-1.031l-.161-1.978a30.891,30.891,0,0,0-.465-3.837A6.021,6.021,0,0,0,343,192.407a1.253,1.253,0,0,0-.3-.23.954.954,0,0,0-.33-.176c-.115-.036-.243-.1-.342-.121a.522.522,0,0,0-.212,0c-.236.03-.593.468-.8,1.009a14.273,14.273,0,0,0-.808,3.641,55.679,55.679,0,0,0-.252,7.757l.006.212-.128.237a19.913,19.913,0,0,0-2.1,4.961,18.922,18.922,0,0,0-.61,5.353,23.319,23.319,0,0,0,.824,5.365,23,23,0,0,0,1.993,5.014l.183.33-.082.338c-.735,3.037-1.5,6.067-2.426,9.051-.885,3-1.9,5.952-2.987,8.876s-2.246,5.824-3.5,8.685-2.554,5.685-4.015,8.485l-.347.666-.705-.208a14.767,14.767,0,0,1-4.577-2.55,43.271,43.271,0,0,1-3.713-3.364c-2.325-2.365-4.449-4.88-6.517-7.428-4.117-5.111-7.971-10.4-11.874-15.63l-2.927-3.921-3.058-3.819-6.124-7.637c-4.009-5.154-8.286-10.093-12.474-15.109l.135-.121c4.36,4.865,8.847,9.626,13.012,14.67l6.33,7.5,3.163,3.753,3.03,3.86c3.99,5.18,7.918,10.4,12.077,15.4,2.085,2.493,4.228,4.936,6.51,7.2a41.547,41.547,0,0,0,3.553,3.2,13.2,13.2,0,0,0,3.925,2.209l-1.053.458c1.4-2.709,2.7-5.531,3.92-8.36s2.365-5.7,3.429-8.6,2.052-5.82,2.971-8.766c.936-2.941,1.721-5.924,2.472-8.914l.1.667a24.57,24.57,0,0,1-2.133-5.474,25.055,25.055,0,0,1-.835-5.783,20.23,20.23,0,0,1,3.074-11.2l-.121.448a57.07,57.07,0,0,1,.411-7.988,15.465,15.465,0,0,1,.987-4.013,4.474,4.474,0,0,1,.6-1,2.124,2.124,0,0,1,1.189-.762,1.856,1.856,0,0,1,.766.01,5.485,5.485,0,0,1,.584.209,1.951,1.951,0,0,1,.529.294,2.354,2.354,0,0,1,.469.372,7.142,7.142,0,0,1,1.742,3.9,31.959,31.959,0,0,1,.41,3.994l.122,1.955a5.174,5.174,0,0,0,.351,1.76,7.807,7.807,0,0,0,2.208,2.909l.188.157,0,.232v.009l-.184-.388c1.251,1.054,2.988,1.8,4.413,1.131,1.431-.644,2.1-2.443,2.864-3.993,1.456-3.216,2.693-6.552,3.936-9.876s2.467-6.664,3.807-9.963a47.914,47.914,0,0,1,2.231-4.88,5.082,5.082,0,0,1,.835-1.145,1.161,1.161,0,0,1,.382-.24.618.618,0,0,1,.3-.027,1.061,1.061,0,0,1,.2.051c.216.063.434.14.652.219a3.391,3.391,0,0,1,1.232.766,3.2,3.2,0,0,1,.723,1.268c.812,3.632.213,7.25-.587,10.72-.385,1.74-.837,3.464-1.19,5.185a14.769,14.769,0,0,0-.345,2.551,2.453,2.453,0,0,0,.158,1.067c.2.384.428.8.622,1.2.8,1.612,1.511,3.249,2.159,4.924a25.214,25.214,0,0,1,1.534,5.248,15.285,15.285,0,0,1-.049,2.8c-.078.907-.21,1.8-.358,2.695a43.415,43.415,0,0,1-1.256,5.264,64.485,64.485,0,0,1-4.1,9.954c-1.563,3.205-3.238,6.343-4.7,9.527a33.479,33.479,0,0,0-1.828,4.873,28.338,28.338,0,0,0-.84,5.122c-.352,3.527-.691,7.079-1.15,10.613s-1.015,7.062-1.756,10.554c-.324,1.754-.786,3.482-1.172,5.223-.472,1.721-.9,3.456-1.431,5.159a73.063,73.063,0,0,1-8.895,19.377Z"/>
    <path id="Path_11584" data-name="Path 11584" d="M331.74,264.684l-5.979-3.186,1.061-1.473Z"/>
    <path id="Path_11585" data-name="Path 11585" d="M299.738,232.075c1.12-1.8,2.337-3.542,3.591-5.259a47.8,47.8,0,0,1,4.088-4.932,13.921,13.921,0,0,1,2.534-2.154c.255-.134.573-.312.783-.4a6.888,6.888,0,0,0,.662-.319,8.383,8.383,0,0,0,1.24-.787,54.411,54.411,0,0,0,4.5-4.322c1.493-1.508,3-3.011,4.56-4.455s3.189-2.826,4.71-4.235a35.239,35.239,0,0,0,4.229-4.553,14.975,14.975,0,0,0,1.6-2.6,5.307,5.307,0,0,0,.6-2.8l-.008-.056v-.03l.007.08a1.73,1.73,0,0,0-.255-.7.934.934,0,0,0-.22-.237.25.25,0,0,0-.073-.042.276.276,0,0,0-.1,0,4.71,4.71,0,0,0-1.532.731,33.753,33.753,0,0,0-2.976,2.225l-2.87,2.413c-.24.2-.48.406-.736.6a1.454,1.454,0,0,1-1.056.389,1.218,1.218,0,0,1-.914-.742,3,3,0,0,1-.229-1.015,10.136,10.136,0,0,1,.7-3.791,29.157,29.157,0,0,1,1.473-3.5c1.134-2.261,2.439-4.41,3.712-6.562a58.7,58.7,0,0,0,3.526-6.482,4.976,4.976,0,0,0,.405-1.55.529.529,0,0,0-.074-.384.409.409,0,0,0-.216-.088,3.212,3.212,0,0,0-1.292.5,12.622,12.622,0,0,0-1.435,1.011,50.091,50.091,0,0,0-5.27,5.132c-1.666,1.829-3.279,3.734-4.844,5.639l-.324.394-.523-.038a16.589,16.589,0,0,0-9.7,2.673,40.724,40.724,0,0,0-8.116,6.8,85.777,85.777,0,0,0-6.758,8.4,12.744,12.744,0,0,1-4.321,3.5,17.332,17.332,0,0,1-5.209,1.7l-.03-.179a15.329,15.329,0,0,0,8.766-5.606,69.819,69.819,0,0,1,6.437-8.823,40.292,40.292,0,0,1,8.262-7.357,17.769,17.769,0,0,1,10.859-3.033l-.846.356c1.6-1.966,3.266-3.841,5-5.677a51.633,51.633,0,0,1,5.574-5.217,14.218,14.218,0,0,1,1.652-1.114,4.286,4.286,0,0,1,2.222-.672,1.931,1.931,0,0,1,1.39.76,2.074,2.074,0,0,1,.351,1.4,6.33,6.33,0,0,1-.581,2.05,48.842,48.842,0,0,1-3.9,6.537c-1.386,2.082-2.779,4.151-3.981,6.315a25.425,25.425,0,0,0-1.571,3.346,9.583,9.583,0,0,0-.719,3.526c.012.562.228,1.185.607,1.221.364.066.894-.482,1.365-.839l2.85-2.44c.967-.8,1.919-1.62,2.967-2.348a5.524,5.524,0,0,1,1.809-.918,1.053,1.053,0,0,1,.362,0,.983.983,0,0,1,.353.144,1.718,1.718,0,0,1,.445.417,2.555,2.555,0,0,1,.448,1.022l.006.028v.061l-.007-.078a6.184,6.184,0,0,1-.491,3.367,15.857,15.857,0,0,1-1.565,2.891,33.173,33.173,0,0,1-4.162,4.951c-1.53,1.526-3.129,2.885-4.661,4.332s-3.088,2.864-4.6,4.34a54.638,54.638,0,0,1-4.749,4.36,9.269,9.269,0,0,1-1.457.878,8.179,8.179,0,0,1-.785.33c-.282.1-.422.2-.645.29a12.926,12.926,0,0,0-2.379,1.837,97.677,97.677,0,0,0-8.307,9.5Z"/>
    <path id="Path_11586" data-name="Path 11586" d="M313.651,192.547l3.483-4.984,1.316,1.251Z"/>
    <path id="Path_11587" data-name="Path 11587" d="M330,195.033c.894-2.614,1.909-5.17,2.916-7.73l1.561-3.816,1.618-3.789c1.083-2.524,2.22-5.022,3.347-7.525,1.171-2.482,2.3-4.985,3.5-7.45l.558-1.139,1.159.466q5.876,2.363,11.682,4.9c1.927.868,3.867,1.7,5.778,2.61,1.921.882,3.828,1.8,5.728,2.734l.39.192-.161.333q-.926,1.915-1.906,3.809c.362-1.375.747-2.741,1.147-4.1l.229.524c-2.022-.629-4.038-1.271-6.04-1.952-2.012-.655-3.994-1.382-5.991-2.076q-5.964-2.143-11.855-4.468l1.717-.673c-1.154,2.49-2.388,4.942-3.579,7.414-1.234,2.452-2.458,4.908-3.736,7.339l-1.923,3.643-1.98,3.616C332.81,190.294,331.464,192.692,330,195.033Z"/>
    <rect id="Rectangle_1922" data-name="Rectangle 1922" width="0.908" height="11.426" transform="translate(326.083 206.776) rotate(-62.982)"/>
    <path id="Path_11588" data-name="Path 11588" d="M361.816,177.279,348.4,206.365a7.36,7.36,0,0,1-2.715-4.232c-.436-3.269,0-10.025-3.487-10.9s-3.051,13.076-3.051,13.076a18.316,18.316,0,0,0-1.117,2.061l-7.746-4.241c2.7-3.387,3.206-5.657,2.969-6.956v-.009l.054-.136,12.377-24.718Z"/>
    <path id="Path_11589" data-name="Path 11589" d="M313.615,301.429a54.561,54.561,0,0,1-14.423-6.05,106.179,106.179,0,0,1-12.881-8.946,136.151,136.151,0,0,1-11.686-10.465c-.927-.926-1.84-1.862-2.741-2.826-.909-1-1.742-1.957-2.6-2.951l-2.537-2.985c-.844-1.032-1.656-1.964-2.492-3.2l.972.561a20.893,20.893,0,0,1-6.646-1.705,24.706,24.706,0,0,1-5.774-3.486,29.615,29.615,0,0,1-8.136-10.5l-.692-1.509-.345-.754c-.1-.257-.179-.521-.269-.781l-1.051-3.129c-.328-1.047-.514-2.13-.776-3.192a26.9,26.9,0,0,1-.631-3.212c-.265-2.165-.659-4.3-.735-6.494a47.111,47.111,0,0,1,.122-6.538,43.407,43.407,0,0,1,3.056-12.648,34.7,34.7,0,0,1,3.007-5.788,23.633,23.633,0,0,1,4.32-4.925,15.682,15.682,0,0,1,5.868-2.984l1.63-.333c.549-.061,1.1-.069,1.656-.1l.829-.038.824.073,1.648.149a35.03,35.03,0,0,1,12.075,4.918l-.831.979a38.267,38.267,0,0,0-12-7.7,45.451,45.451,0,0,0-13.874-3.357,57.527,57.527,0,0,0-14.281.819,47.77,47.77,0,0,1-7.484.786,20.075,20.075,0,0,1-3.91-.312,8.4,8.4,0,0,1-3.937-1.785l-1.661-1.448,2.089-.8h0l2.516-.961-.775,2.635a98.9,98.9,0,0,0-2.989,14.459c-.195,1.222-.331,2.452-.463,3.683s-.294,2.458-.391,3.692l-.253,3.706-.121,1.853-.04,1.857a137.333,137.333,0,0,0,2.227,29.572c.5,2.427.868,4.886,1.578,7.264l.954,3.6c.324,1.2.6,2.409,1.043,3.57l2.408,7.047c.934,2.3,1.919,4.576,2.877,6.869a73.581,73.581,0,0,0,3.244,6.722c1.156,2.212,2.352,4.4,3.57,6.581s2.493,4.323,3.876,6.393c.691,1.034,1.414,2.047,2.195,3.009a13.966,13.966,0,0,0,1.244,1.366,4.138,4.138,0,0,0,1.481,1l-.066.264a4.413,4.413,0,0,1-1.674-.974,14.409,14.409,0,0,1-1.37-1.324,36.511,36.511,0,0,1-2.391-2.933c-1.5-2.02-2.89-4.12-4.237-6.241s-2.622-4.285-3.869-6.465a74.976,74.976,0,0,1-3.534-6.671c-1.059-2.287-2.148-4.567-3.185-6.87l-2.636-7.1c-.475-1.173-.787-2.4-1.145-3.609l-1.056-3.639c-.778-2.41-1.217-4.9-1.779-7.367a127.984,127.984,0,0,1-2.667-30.157l.045-1.9.127-1.893.265-3.786c.1-1.261.272-2.516.405-3.774s.281-2.515.5-3.763a101.14,101.14,0,0,1,3.287-14.885l1.741,1.674h0l.429-2.246a5.855,5.855,0,0,0,2.665,1.192,17.558,17.558,0,0,0,3.377.306,45.356,45.356,0,0,0,7.081-.657,57.885,57.885,0,0,1,14.9-.542,44.874,44.874,0,0,1,14.376,3.918,40.362,40.362,0,0,1,12.248,8.447l3.833,3.99-4.663-3.011a31.982,31.982,0,0,0-11.531-5.04l-1.56-.156-.781-.079-.78.029c-.52.029-1.043.028-1.56.079l-1.531.3a14.805,14.805,0,0,0-5.557,2.752,25.49,25.49,0,0,0-7.006,10.4,39.471,39.471,0,0,0-2.628,12.4,45.706,45.706,0,0,0,.116,6.345c.149,2.109.616,4.193.945,6.283a25.6,25.6,0,0,0,.721,3.085c.29,1.013.5,2.052.854,3.042l1.108,2.946c.094.244.179.493.28.733l.352.7.7,1.4a28.782,28.782,0,0,0,7.659,9.584,22.311,22.311,0,0,0,5.234,3.136,18.819,18.819,0,0,0,5.765,1.568l.638.059.334.5c.615.926,1.486,1.981,2.281,2.963l2.484,2.977,2.508,2.936c.854.951,1.737,1.894,2.631,2.821q2.679,2.789,5.505,5.441c.936.889,1.871,1.78,2.837,2.636s1.916,1.732,2.905,2.56a113.888,113.888,0,0,0,12.374,9.289,58.077,58.077,0,0,0,13.879,6.8Z"/>
    <path id="Path_11590" data-name="Path 11590" d="M357,265.4c2.392-1.285,4.819-2.481,7.265-3.631,1.217-.59,2.453-1.133,3.679-1.7s2.469-1.093,3.7-1.642l.543-.242.52.37a41.427,41.427,0,0,1,3.717,3c1.207,1.021,2.3,2.151,3.418,3.263a62.942,62.942,0,0,1,5.9,7.339c3.526,5.185,6.84,10.444,9.835,15.922.824,1.332,1.487,2.746,2.186,4.146l1.057,2.1.525,1.054.454,1.084c.592,1.451,1.191,2.9,1.756,4.371.585,1.46.948,2.993,1.424,4.491a85.607,85.607,0,0,1,2.237,9.165c.611,3.089.8,6.244,1.138,9.366l.129,1.174-1.181.279c-2,.472-4.019.877-6.028,1.317l-6.049,1.229q-3.03.592-6.073,1.133c-2.035.333-4.061.7-6.108.989l-.065-.265c1.947-.694,3.914-1.305,5.872-1.953q2.947-.932,5.907-1.809l5.931-1.713c1.984-.54,3.96-1.116,5.952-1.625l-1.052,1.452-.6-4.547a44.979,44.979,0,0,0-.626-4.537c-.569-3-.982-6.039-1.85-8.977l-.573-2.223c-.2-.74-.352-1.493-.617-2.212-.486-1.451-.937-2.917-1.4-4.384l-.334-1.1-.407-1.077-.822-2.156c-.553-1.437-1.089-2.887-1.78-4.265a58.115,58.115,0,0,0-10.134-15.4c-2.046-2.3-4.2-4.483-6.337-6.669-1.105-1.053-2.168-2.153-3.29-3.183-1.1-1.051-2.283-2.045-3.407-2.977l1.063.128c-1.268.463-2.526.953-3.8,1.395s-2.542.914-3.826,1.336c-2.558.874-5.134,1.7-7.746,2.442Z"/>
    <path id="Path_11591" data-name="Path 11591" d="M218.464,195.169Q199.292,197,180.2,199.479c-6.359.836-12.7,1.763-19.017,2.845-6.305,1.1-12.6,2.328-18.73,3.99a41.265,41.265,0,0,0-8.743,3.277,7.944,7.944,0,0,0-1.692,1.242,2.973,2.973,0,0,0-.486.668c-.032.109-.063.184-.09.3l-.025.418a33.807,33.807,0,0,0,.586,4.578c1.161,6.25,2.7,12.491,4.227,18.711,3.121,12.437,6.29,24.877,9.6,37.279l9.82,37.244,4.993,18.6,5.141,18.562c1.735,6.181,3.432,12.374,5.214,18.542l5.356,18.5c3.55,12.34,7.274,24.631,10.948,36.933l-.725-.533,43.8-1.186,43.8-1.024,43.8-.951,21.9-.416,21.9-.344-.816.283,29.871-22.4c9.971-7.446,19.911-14.934,29.92-22.331l-.35.6c.669-4.851,1.073-9.79,1.256-14.708a104.536,104.536,0,0,0-.431-14.746,52.337,52.337,0,0,0-1.248-7.244,26.262,26.262,0,0,0-2.641-6.8,11.3,11.3,0,0,0-5.179-4.882,11.593,11.593,0,0,0-7.17-.4l-.065-.265A10.922,10.922,0,0,1,417.966,329a27.072,27.072,0,0,1,2.94,6.925,53.377,53.377,0,0,1,1.5,7.348,101.775,101.775,0,0,1,.768,14.926c-.082,4.985-.381,9.942-.961,14.92l-.042.358-.309.24c-9.823,7.641-19.716,15.191-29.577,22.782l-29.626,22.718-.356.273-.46.01-21.9.473-21.9.4-43.808.683-43.809.611-43.812.449-.573.006-.152-.539L175.439,384.5,170.2,365.969l-5.319-18.514-10.691-37.014c-3.559-12.34-7.107-24.685-10.533-37.066l-5-18.612c-1.644-6.211-3.259-12.431-4.744-18.687s-2.976-12.506-4.112-18.893a34.919,34.919,0,0,1-.582-4.973c.009-.251.036-.523.061-.783a4.66,4.66,0,0,1,.263-.844,5.046,5.046,0,0,1,.915-1.276,9.968,9.968,0,0,1,2.179-1.6,43,43,0,0,1,9.269-3.414,180.245,180.245,0,0,1,18.992-3.747c6.364-.966,12.745-1.774,19.133-2.489,6.386-.731,12.787-1.307,19.19-1.834s12.809-.995,19.225-1.331Z"/>
    <path id="Path_11592" data-name="Path 11592" d="M361.815,418.112s-1.308-83.688-4.768-96.764-104.657-.756-135.148-4.577c-9.571-1.2-16.664-6.928-21.484-12.64a50.426,50.426,0,0,1-9.351-17.156c-14.677-45.722-21-64.593-26.7-72.2-5.884-7.846-34-3.214-34-3.214-1.961,10.406,56.228,209.819,56.228,209.819Z"/>
    <path id="Path_11593" data-name="Path 11593" d="M162.4,206.236a26.268,26.268,0,0,1,20.642,10.007,35.053,35.053,0,0,1,3.3,4.971,41.477,41.477,0,0,1,2.34,5.479c.694,1.875,1.236,3.757,1.732,5.646.52,1.886.972,3.785,1.434,5.679,1.836,7.579,3.49,15.171,5.516,22.644a127.494,127.494,0,0,0,7.676,21.759,48.176,48.176,0,0,0,6.029,9.663,24.971,24.971,0,0,0,8.753,6.982,8.608,8.608,0,0,0,1.3.543l1.325.485c.923.2,1.8.506,2.767.633,1.911.266,3.8.639,5.736.821s3.859.378,5.794.531l5.817.341c7.765.335,15.545.413,23.322.32,7.778-.019,15.554-.332,23.327-.6,7.773-.3,15.542-.719,23.311-1.072l11.65-.609,5.822-.321c1.9-.081,3.848-.3,5.808-.414a183.775,183.775,0,0,1,23.513-.25,45.483,45.483,0,0,1,11.859,2.075,12.558,12.558,0,0,1,2.941,1.479,5.539,5.539,0,0,1,2.307,3.089c.423,2.134.651,3.987.878,5.965,1.649,15.556,2.527,31.079,3.334,46.65l.126,2.927c.021.483.038.982.042,1.492l.005.373c.013.051,0,.109.013.157a.661.661,0,0,0,.116.278,2.245,2.245,0,0,0,1.818.617,9.434,9.434,0,0,0,2.6-.456,24.455,24.455,0,0,0,5.089-2.39,49.9,49.9,0,0,0,4.743-3.251,136.945,136.945,0,0,0,16.873-15.97l.206.178q-3.685,4.535-7.7,8.806a93.287,93.287,0,0,1-8.528,8.067,51.383,51.383,0,0,1-4.764,3.512,26.061,26.061,0,0,1-5.366,2.741,11.2,11.2,0,0,1-3.115.646,5.471,5.471,0,0,1-1.748-.2,3.272,3.272,0,0,1-1.7-1.124,2.66,2.66,0,0,1-.485-1.036,3.636,3.636,0,0,1-.07-.566l-.018-.356-.074-1.424-.187-2.9q-.811-11.626-1.845-23.251c-.7-7.74-1.319-15.5-2.247-23.18-.106-.964-.252-1.907-.37-2.862-.057-.481-.133-.945-.213-1.405l-.116-.694-.058-.347-.029-.173-.029-.1a2.69,2.69,0,0,0-1.168-1.441,9.766,9.766,0,0,0-2.262-1.126,45.762,45.762,0,0,0-11.065-1.969,181.254,181.254,0,0,0-23.147-.023c-1.927.087-3.854.285-5.84.347l-5.838.232-11.676.368c-7.784.233-15.572.327-23.358.4-15.574.125-31.146.169-46.722-.328l-5.842-.239-5.842-.4c-1.949-.116-3.893-.429-5.844-.635-.973-.095-1.959-.384-2.94-.571l-1.433-.468a9.6,9.6,0,0,1-1.41-.534,26.581,26.581,0,0,1-9.587-7.129,48.58,48.58,0,0,1-6.613-9.892,111.186,111.186,0,0,1-7.978-22.15c-2-7.564-3.576-15.2-5.242-22.79l-1.3-5.669c-.433-1.89-.911-3.764-1.515-5.56a39.761,39.761,0,0,0-2.071-5.314,33.547,33.547,0,0,0-3-4.831,26.973,26.973,0,0,0-8.519-7.456,10,10,0,0,0-1.277-.651l-1.306-.6c-.9-.313-1.79-.7-2.724-.929a23.262,23.262,0,0,0-5.679-.976Z"/>
    <path id="Path_11594" data-name="Path 11594" d="M381.157,363.519,379.8,395.883l-1.362-32.364Z"/>
    <rect id="Rectangle_1923" data-name="Rectangle 1923" width="6.357" height="60.151" transform="translate(358.637 418.112)"/>
    <rect id="Rectangle_1924" data-name="Rectangle 1924" width="6.357" height="60.151" transform="translate(417.743 362.485)"/>
    <rect id="Rectangle_1925" data-name="Rectangle 1925" width="6.357" height="60.151" transform="translate(186.221 418.112)"/>
    <path id="Path_11595" data-name="Path 11595" d="M472.48,385.347l3.095,17.946L478.2,433.5s-17.055,3.181-23.6,1.878c0,0-14.544-23.177-26.971-45.635a187.857,187.857,0,0,1-18.386-47.666l-4.273-18.118a96.071,96.071,0,0,0-2.941-17.466c2.951-2.692,5.777-5.49,8.565-8.326s5.519-5.73,8.249-8.613c1.2-1.293,2.386-2.6,3.583-3.9a34.836,34.836,0,0,1,16.365.69,23.806,23.806,0,0,1,7.866,4.053,23.5,23.5,0,0,1,5.73,6.678,48.144,48.144,0,0,1,3.4,8.249c.958,2.855,1.782,5.758,2.558,8.69,1.533,5.844,2.865,11.756,4.1,17.687,2.587,11.833,4.733,23.78,6.889,35.719C470.429,373.39,471.464,379.369,472.48,385.347Z"/>
    <path id="Path_11596" data-name="Path 11596" d="M494.622,419.121l-19.047-15.828c-.613-6.046-1.409-12.063-2.165-18.089q-1.25-9.025-2.616-18.032c-.891-6.007-1.964-11.986-3.018-17.965-1.083-5.979-2.213-11.957-3.459-17.907-1.294-5.94-2.683-11.861-4.292-17.744-.8-2.941-1.667-5.864-2.663-8.757a43.883,43.883,0,0,0-3.708-8.479,25.074,25.074,0,0,0-6.257-6.879,24.423,24.423,0,0,0-8.345-4,31.611,31.611,0,0,0-9.131-.939,35.719,35.719,0,0,0-7.349,1.006c1.447-1.571,2.9-3.133,4.331-4.714,2.7-2.913,5.279-5.931,8.144-8.7l-1.255.814c-.422.287-.8.6-1.207.91-.8.6-1.552,1.255-2.319,1.9q-2.271,1.955-4.427,4.034c-2.9,2.731-5.662,5.605-8.393,8.5-2.711,2.913-5.375,5.873-7.952,8.91s-5.1,6.113-7.464,9.332c-8.336-31.455-29.97-47.043-29.97-47.043s48.164-27.019,63.418-14.812,22.228,17.869,42.713,76.276,31.7,81.334,31.7,81.334Z"/>
    <path id="Path_11597" data-name="Path 11597" d="M454.736,428.659a52.263,52.263,0,0,1-.937,12.432,17.19,17.19,0,0,1-1.025,3.006,26.382,26.382,0,0,0-.946,2.854,12.683,12.683,0,0,0-.276,5.807,9.1,9.1,0,0,0,2.866,4.831,13.293,13.293,0,0,0,1.134.908l.61.407c.229.151.464.3.677.465a13.919,13.919,0,0,0,2.448,1.645,17.256,17.256,0,0,0,5.791,1.207c2.036.143,4.094.172,6.154.149a206.079,206.079,0,0,0,24.648-2.266l24.526-3.548-.75.757a3.028,3.028,0,0,0-.1-.463,3.394,3.394,0,0,0-.279-.614,5.8,5.8,0,0,0-.877-1.178,12.853,12.853,0,0,0-2.441-1.981,33.069,33.069,0,0,0-5.879-2.894c-2.081-.791-4.176-1.449-6.361-2.091-2.172-.658-4.324-1.388-6.459-2.167a62.558,62.558,0,0,1-12.339-5.842,23.386,23.386,0,0,1-5.255-4.426,9.453,9.453,0,0,1-2.486-6.292.088.088,0,0,1,.175,0,9.286,9.286,0,0,0,2.814,5.844,24.354,24.354,0,0,0,5.3,3.983,70.454,70.454,0,0,0,12.311,5.257c4.238,1.461,8.618,2.412,12.968,3.994a33.327,33.327,0,0,1,6.242,3.082,13.585,13.585,0,0,1,2.761,2.32,7.545,7.545,0,0,1,1.1,1.554,3.993,3.993,0,0,1,.546,2.135.778.778,0,0,1-.678.749l-.072.009c-8.2,1.05-16.414,2.019-24.653,2.748-8.243.7-16.455,1.6-24.726,2.135-2.069.134-4.145.221-6.238.183a18.077,18.077,0,0,1-6.333-1.019,15.092,15.092,0,0,1-2.744-1.714l-1.289-.85a14.844,14.844,0,0,1-1.29-1.02,10.206,10.206,0,0,1-3.262-5.7,14.076,14.076,0,0,1,.423-6.456,19.886,19.886,0,0,1,1.1-2.989,15.909,15.909,0,0,0,1.121-2.8,69.278,69.278,0,0,0,1.808-12.158.088.088,0,0,1,.092-.083.091.091,0,0,1,.083.086Z"/>
    <path id="Path_11598" data-name="Path 11598" d="M461.07,439.835a8.93,8.93,0,0,0,.9,3.987,5.451,5.451,0,0,0,1.212,1.556,12.814,12.814,0,0,0,1.691,1.269,4.783,4.783,0,0,1-2.107-.727,4.386,4.386,0,0,1-1.568-1.686,5,5,0,0,1-.125-4.4Z" fill="#fff"/>
    <path id="Path_11599" data-name="Path 11599" d="M466.707,447.349l-1.9-.252a5.19,5.19,0,0,1-2.3-.8,4.787,4.787,0,0,1-1.709-1.843,5.478,5.478,0,0,1-.137-4.81l.794-1.69.07,1.866a8.326,8.326,0,0,0,.841,3.786,5,5,0,0,0,1.115,1.434,10.725,10.725,0,0,0,1.438,1.094Z"/>
    <path id="Path_11600" data-name="Path 11600" d="M453.163,458.132s-4.916,1.891-1.87,10.831c0,0-.291,3.374,11.659,2.348l60.279-1.915s4.136-10.009-5.2-11.637l-15.086,1.9s3.467-9.13,2.32-12.035a13.954,13.954,0,0,0-16.14-5.529s1.1,14.429-9.875,19.737C479.256,461.832,462.845,461.549,453.163,458.132Z"/>
    <path id="Path_11601" data-name="Path 11601" d="M492.444,416.654a52.259,52.259,0,0,1,7.505,9.955,17.193,17.193,0,0,1,1.215,2.935,26.381,26.381,0,0,0,1.174,2.768,12.683,12.683,0,0,0,3.627,4.543,9.1,9.1,0,0,0,5.342,1.735,13.29,13.29,0,0,0,1.451-.067l.726-.1c.272-.038.548-.079.815-.1a13.918,13.918,0,0,0,2.924-.381,17.257,17.257,0,0,0,5.146-2.918c1.623-1.237,3.188-2.575,4.719-3.952A206.087,206.087,0,0,0,544.1,413.1l16.076-18.859-.063,1.064a3.022,3.022,0,0,0-.384-.279,3.4,3.4,0,0,0-.615-.277,5.794,5.794,0,0,0-1.437-.306,12.85,12.85,0,0,0-3.141.124,33.073,33.073,0,0,0-6.326,1.709c-2.085.78-4.093,1.669-6.158,2.63-2.066.94-4.164,1.813-6.282,2.637a62.558,62.558,0,0,1-13.124,3.76,23.388,23.388,0,0,1-6.869.146,9.453,9.453,0,0,1-6.022-3.083.088.088,0,0,1,.13-.117,9.286,9.286,0,0,0,5.972,2.531,24.354,24.354,0,0,0,6.609-.507,70.452,70.452,0,0,0,12.716-4.181c4.147-1.7,8.065-3.879,12.376-5.563a33.33,33.33,0,0,1,6.723-1.807,13.588,13.588,0,0,1,3.605-.081,7.543,7.543,0,0,1,1.854.439,3.992,3.992,0,0,1,1.82,1.243.778.778,0,0,1-.015,1.01l-.048.054c-5.465,6.2-10.993,12.354-16.7,18.343-5.727,5.971-11.3,12.066-17.16,17.93-1.466,1.467-2.967,2.9-4.564,4.256a18.077,18.077,0,0,1-5.429,3.417,15.094,15.094,0,0,1-3.193.525l-1.53.213a14.852,14.852,0,0,1-1.642.085,10.206,10.206,0,0,1-6.212-2.124,14.075,14.075,0,0,1-3.945-5.127,19.885,19.885,0,0,1-1.144-2.974,15.91,15.91,0,0,0-1-2.84,69.279,69.279,0,0,0-6.67-10.324.088.088,0,0,1,.014-.123.091.091,0,0,1,.119.01Z"/>
    <path id="Path_11602" data-name="Path 11602" d="M504.58,420.865a8.93,8.93,0,0,0,3.306,2.4,5.449,5.449,0,0,0,1.938.368,12.815,12.815,0,0,0,2.108-.163,4.784,4.784,0,0,1-2.062.845,4.387,4.387,0,0,1-2.291-.231A5,5,0,0,1,504.58,420.865Z" fill="#fff"/>
    <path id="Path_11603" data-name="Path 11603" d="M509.176,424.837a5.177,5.177,0,0,1-1.753-.324,5.479,5.479,0,0,1-3.279-3.522l-.519-1.792,1.285,1.353a8.34,8.34,0,0,0,3.133,2.288,5.006,5.006,0,0,0,1.784.341,10.584,10.584,0,0,0,1.8-.128l2.146-.266-1.588,1.062a5.182,5.182,0,0,1-2.262.918,3.963,3.963,0,0,1-.748.069Z"/>
    <path id="Path_11604" data-name="Path 11604" d="M510.723,439.827s-2.443,4.667,5.748,9.369c0,0,2.009,2.726,10.306-5.936l44.005-41.241s-3.5-10.248-11.586-5.309L549.122,408.1s-3.425-9.146-6.2-10.57a13.954,13.954,0,0,0-15.772,6.505s10.354,10.11,5.617,21.343C532.762,425.376,520.251,436,510.723,439.827Z"/>
    <path id="Path_11605" data-name="Path 11605" d="M474.654,117.8V77a5.275,5.275,0,0,0-5.26-5.26H396.712a5.275,5.275,0,0,0-5.26,5.26V208.335a5.27,5.27,0,0,0,5.259,5.27h72.684a5.271,5.271,0,0,0,5.26-5.27V172.914h-8.92v27.278a4.363,4.363,0,0,1-4.359,4.359H404.731a4.355,4.355,0,0,1-4.35-4.359V85.151a4.349,4.349,0,0,1,4.35-4.359h56.644a4.357,4.357,0,0,1,4.359,4.359V117.8Z"/>
    <path id="Path_11606" data-name="Path 11606" d="M417.359,200.781a1.092,1.092,0,0,1-.912-.49l-4.859-7.333a1.093,1.093,0,0,1,.911-1.7,3.766,3.766,0,0,0,0-7.532,1.094,1.094,0,0,1,0-2.188,5.954,5.954,0,0,1,1.843,11.614l3.927,5.928a1.093,1.093,0,0,1-.91,1.7Z"/>
    <path id="Path_11607" data-name="Path 11607" d="M421.128,183.729H406.815a1.094,1.094,0,0,1,0-2.188h14.313a1.094,1.094,0,0,1,0,2.188Z"/>
    <path id="Path_11608" data-name="Path 11608" d="M421.128,193.448H406.815a1.094,1.094,0,1,1,0-2.188h14.313a1.094,1.094,0,0,1,0,2.188Z"/>
    <path id="Path_11609" data-name="Path 11609" d="M436.66,200.781a1.092,1.092,0,0,1-.912-.49l-4.86-7.333a1.093,1.093,0,0,1,.911-1.7,3.766,3.766,0,0,0,0-7.532,1.094,1.094,0,1,1,0-2.188,5.954,5.954,0,0,1,1.843,11.615l3.928,5.927a1.094,1.094,0,0,1-.91,1.7Z"/>
    <path id="Path_11610" data-name="Path 11610" d="M440.429,183.729H426.115a1.094,1.094,0,0,1,0-2.188h14.314a1.094,1.094,0,0,1,0,2.188Z"/>
    <path id="Path_11611" data-name="Path 11611" d="M440.429,193.448H426.115a1.094,1.094,0,0,1,0-2.188h14.314a1.094,1.094,0,0,1,0,2.188Z"/>
    <path id="Path_11612" data-name="Path 11612" d="M455.524,200.781a1.092,1.092,0,0,1-.912-.49l-4.86-7.333a1.093,1.093,0,0,1,.911-1.7,3.766,3.766,0,0,0,0-7.532,1.094,1.094,0,0,1,0-2.188,5.954,5.954,0,0,1,1.843,11.615l3.928,5.927a1.094,1.094,0,0,1-.91,1.7Z"/>
    <path id="Path_11613" data-name="Path 11613" d="M459.293,183.729H444.979a1.094,1.094,0,0,1,0-2.188h14.314a1.094,1.094,0,0,1,0,2.188Z"/>
    <path id="Path_11614" data-name="Path 11614" d="M459.293,193.448H444.979a1.094,1.094,0,1,1,0-2.188h14.314a1.094,1.094,0,0,1,0,2.188Z"/>
    <path id="Path_11615" data-name="Path 11615" d="M529.9,117.707a3.4,3.4,0,0,1,3.366,2.942c.068,1.6.02,3.163.051,4.747.039,3.156.05,6.313.119,9.469l.351,18.938.159,9.469.057,4.735.006,1.184a5.744,5.744,0,0,1-.1,1.362,4.091,4.091,0,0,1-1.6,2.425,4.14,4.14,0,0,1-1.335.639,4.9,4.9,0,0,1-1.393.151l-2.367,0-4.735-.021-9.469-.043-18.938-.26-9.469-.14-9.469-.062c-12.625-.1-25.251.038-37.876.193a3.85,3.85,0,0,1-3.838-3.31,12.119,12.119,0,0,1-.05-1.256l-.016-1.184-.032-2.367-.106-9.469-.141-18.938-.049-9.469L433,122.71l-.006-1.184a5.919,5.919,0,0,1,.1-1.4,4.269,4.269,0,0,1,3.047-3.183,4.164,4.164,0,0,1,.76-.135l.376-.018.3,0,2.367-.005,4.735.009,9.469.019c12.625,0,25.251.09,37.876.357C504.648,117.422,517.274,117.715,529.9,117.707Zm0,.192c-12.626-.007-25.251.286-37.877.535-12.625.267-25.251.36-37.876.357l-9.469.019-4.735.009-2.367-.005-.3,0-.215.009a2.16,2.16,0,0,0-.4.067,2.277,2.277,0,0,0-1.642,1.68,4.033,4.033,0,0,0-.066.958l-.006,1.184-.024,4.735-.049,9.469-.141,18.938-.106,9.469-.032,2.367-.016,1.184c0,.39-.023.816.008,1.108a2.731,2.731,0,0,0,2.669,2.41c12.625.155,25.251.291,37.876.193l9.469-.062,9.469-.14,18.938-.26,9.469-.043,4.735-.021,2.367,0a3.145,3.145,0,0,0,.953-.081,2.447,2.447,0,0,0,.791-.368,2.417,2.417,0,0,0,.967-1.427,4.157,4.157,0,0,0,.07-.992l.006-1.184.057-4.735.159-9.469.351-18.938c.069-3.156.08-6.313.119-9.469.005-1.571.042-3.172-.008-4.719A3.2,3.2,0,0,0,529.9,117.9Z"/>
    <rect id="Rectangle_1926" data-name="Rectangle 1926" width="99.208" height="5.468" transform="translate(433.973 129.24)"/>
    <circle id="Ellipse_316" data-name="Ellipse 316" cx="5.315" cy="5.315" r="5.315" transform="translate(515.006 156.316)"/>
    <path id="Path_11616" data-name="Path 11616" d="M448.84,82.981H417.267a2.187,2.187,0,0,1,0-4.374H448.84a2.187,2.187,0,1,1,0,4.374Z"/>
    <path id="Path_11617" data-name="Path 11617" d="M433.972,140.514v18.941a9.474,9.474,0,0,1,0-18.941Z"/>
    <rect id="Rectangle_1927" data-name="Rectangle 1927" width="65.352" height="3.28" transform="translate(400.378 91.752)"/>
    <path id="Path_11618" data-name="Path 11618" d="M363.158,236.564a12.41,12.41,0,0,1,2.776,1.981,6.484,6.484,0,0,1,1.13,1.4,3.084,3.084,0,0,1,.464,2.009,2.6,2.6,0,0,1-.462,1.077,3.1,3.1,0,0,1-.809.732,5.727,5.727,0,0,1-1.792.7,11.562,11.562,0,0,1-3.509.173,41.748,41.748,0,0,1-6.609-1.462c-2.153-.586-4.314-1.13-6.468-1.755a38.358,38.358,0,0,1-6.32-2.347,31.293,31.293,0,0,1-5.871-3.465,15.353,15.353,0,0,1-2.526-2.456,7,7,0,0,1-.976-1.618,3.075,3.075,0,0,1-.142-2.154,2.636,2.636,0,0,1,1.486-1.523,5.548,5.548,0,0,1,1.774-.44,12.563,12.563,0,0,1,3.407.2l-.009.181a17.6,17.6,0,0,0-3.227.531,5.347,5.347,0,0,0-1.377.587,1.4,1.4,0,0,0-.685.875c-.129.612.421,1.507,1.1,2.228a16.294,16.294,0,0,0,2.355,2.05,46.706,46.706,0,0,0,5.466,3.479c1.927,1.021,3.887,2.011,5.891,2.937a26.858,26.858,0,0,0,12.8,2.64,19.735,19.735,0,0,0,3.119-.236c.977-.178,1.872-.591,2.009-1.194a2.013,2.013,0,0,0-.171-1.2,7.3,7.3,0,0,0-.769-1.318,25.723,25.723,0,0,0-2.157-2.471Z"/>
    <path id="Path_11619" data-name="Path 11619" d="M360.593,242.934a14.553,14.553,0,0,1,2.9,1.872,8.572,8.572,0,0,1,1.258,1.272,4.454,4.454,0,0,1,.907,1.73,2.508,2.508,0,0,1-.491,2.222,3.962,3.962,0,0,1-1.765,1.114,9.654,9.654,0,0,1-3.6.4,38.018,38.018,0,0,1-6.747-1.351c-2.194-.567-4.391-1.107-6.584-1.723a38.76,38.76,0,0,1-6.431-2.34,32.246,32.246,0,0,1-5.985-3.466,16.406,16.406,0,0,1-2.594-2.446,7.889,7.889,0,0,1-1.03-1.593,3.352,3.352,0,0,1-.3-2.133,2.585,2.585,0,0,1,1.4-1.671,5.332,5.332,0,0,1,1.8-.493,12.283,12.283,0,0,1,3.462.175l-.008.181a16.793,16.793,0,0,0-3.27.554,5.037,5.037,0,0,0-1.374.619,1.332,1.332,0,0,0-.612.912,3.613,3.613,0,0,0,1.249,2.286,17.68,17.68,0,0,0,2.432,2.056A48.179,48.179,0,0,0,340.8,244.6c1.965,1.022,3.962,2.014,6.006,2.934a30.17,30.17,0,0,0,6.377,2.085,28.2,28.2,0,0,0,6.629.413,13.584,13.584,0,0,0,3.084-.416,2.476,2.476,0,0,0,1.1-.6,1.024,1.024,0,0,0,.275-.936,6.093,6.093,0,0,0-1.466-2.591c-.707-.832-1.509-1.615-2.321-2.409Z"/>
  </g>
</svg>